<svg id="Capa_1" data-name="Capa 1" xmlns="http://www.w3.org/2000/svg" viewBox="0 0 1920 327"><defs><style>.cls-1{fill:#1f3a19;}.cls-2{fill:#3b5635;}</style></defs><rect class="cls-1" width="1920" height="327"/><polygon class="cls-2" points="102 72 102 40.16 121.44 72 153.19 56.08 153.19 72 169.06 72 147 86 94 73 102 72"/><polygon class="cls-2" points="358.13 233.09 358.13 201.25 377.58 233.09 409.32 217.18 409.32 233.09 425.2 233.09 403.13 247.09 350.13 234.09 358.13 233.09"/><polygon class="cls-2" points="640.13 72.09 640.13 40.25 659.58 72.09 691.33 56.17 691.33 72.09 707.2 72.09 685.13 86.09 632.13 73.09 640.13 72.09"/><polygon class="cls-2" points="914.13 233.09 914.13 201.25 933.58 233.09 965.33 217.18 965.33 233.09 981.2 233.09 959.13 247.09 906.13 234.09 914.13 233.09"/><polygon class="cls-2" points="1165.13 72.09 1165.13 40.25 1184.58 72.09 1216.33 56.17 1216.33 72.09 1232.2 72.09 1210.13 86.09 1157.13 73.09 1165.13 72.09"/><polygon class="cls-2" points="1421.13 233.09 1421.13 201.25 1440.58 233.09 1472.33 217.18 1472.33 233.09 1488.2 233.09 1466.13 247.09 1413.13 234.09 1421.13 233.09"/><polygon class="cls-2" points="1746.13 72.09 1746.13 40.25 1765.58 72.09 1797.33 56.17 1797.33 72.09 1813.2 72.09 1791.13 86.09 1738.13 73.09 1746.13 72.09"/></svg>