<svg id="Capa_1" data-name="Capa 1" xmlns="http://www.w3.org/2000/svg" viewBox="0 0 50.8 29.1"><defs><style>.cls-1{stroke:#000;}.cls-1,.cls-4{stroke-miterlimit:10;}.cls-2{fill:#417f00;}.cls-3{fill:#e0c599;}.cls-4{fill:none;stroke:#315b00;}.cls-5{fill:#563823;}</style></defs><path class="cls-1" d="M18.85,25s-2-14,4-2.16" transform="translate(-7.13 -17.27)"/><path class="cls-1" d="M46.05,25s2-14.64-4-2.25" transform="translate(-7.13 -17.27)"/><path class="cls-2" d="M17.35,25s-23,5,0,19H48.52s21.17-13,0-19A40.34,40.34,0,0,0,17.35,25Z" transform="translate(-7.13 -17.27)"/><path class="cls-3" d="M43.35,34c0,6.63-4.92,12-11,12s-11-5.37-11-12a12.51,12.51,0,0,1,3.17-8.42A10.53,10.53,0,0,1,32.35,22C38.43,22,43.35,27.37,43.35,34Z" transform="translate(-7.13 -17.27)"/><path class="cls-4" d="M17.35,25s-6,13-1,18" transform="translate(-7.13 -17.27)"/><path class="cls-4" d="M47.35,25s6,13.44,1,18.6" transform="translate(-7.13 -17.27)"/><path class="cls-5" d="M44,35.47c0,6-5.38,10.91-12,10.91S20,41.49,20,35.47a10.37,10.37,0,0,1,3.46-7.65A12.57,12.57,0,0,1,32,24.57C38.64,24.57,44,29.45,44,35.47Z" transform="translate(-7.13 -17.27)"/></svg>