<svg id="Capa_1" data-name="Capa 1" xmlns="http://www.w3.org/2000/svg" viewBox="0 0 50.8 29.11"><defs><style>.cls-1{stroke:#000;}.cls-1,.cls-5{stroke-miterlimit:10;}.cls-2{fill:#121e35;}.cls-3{fill:#e0c599;}.cls-4{fill:#1d306d;}.cls-5{fill:none;stroke:#101826;}</style></defs><path class="cls-1" d="M18.5,25s-2-14,4-2.16" transform="translate(-6.78 -16.89)"/><path class="cls-1" d="M45.7,25s2-14.64-4-2.25" transform="translate(-6.78 -16.89)"/><path class="cls-2" d="M17,25s-23,5,0,19H48.17s21.17-13,0-19A40.34,40.34,0,0,0,17,25Z" transform="translate(-6.78 -16.89)"/><path class="cls-3" d="M43,34c0,6.63-4.92,12-11,12S21,40.63,21,34a12.51,12.51,0,0,1,3.17-8.42A10.51,10.51,0,0,1,32,22C38.08,22,43,27.37,43,34Z" transform="translate(-6.78 -16.89)"/><path class="cls-4" d="M43.74,32.39c0,7-5.18,12.61-11.56,12.61S20.62,39.35,20.62,32.39a13.23,13.23,0,0,1,3.32-8.86,11.09,11.09,0,0,1,8.24-3.75C38.56,19.78,43.74,25.42,43.74,32.39Z" transform="translate(-6.78 -16.89)"/><path class="cls-1" d="M22.07,26.44s.14-.14.4-.36c2-1.73,11.15-8.67,20.17.36V21.9s-10.42-10.15-20.57,0Z" transform="translate(-6.78 -16.89)"/><path class="cls-5" d="M17,25s-6,13-1,18" transform="translate(-6.78 -16.89)"/><path class="cls-5" d="M47,25s6,13.44,1,18.6" transform="translate(-6.78 -16.89)"/></svg>