<svg id="Capa_1" data-name="Capa 1" xmlns="http://www.w3.org/2000/svg" viewBox="0 0 20 53"><defs><style>.cls-1{fill:#ceb502;}.cls-2{fill:#7f6700;}.cls-3{fill:#d6d3c4;}.cls-4{fill:#aaa799;}.cls-5{fill:#8e0202;}</style></defs><rect class="cls-1" x="0.5" y="0.5" width="19" height="11"/><path class="cls-2" d="M49,14V24H31V14H49m1-1H30V25H50V13Z" transform="translate(-30 -13)"/><rect class="cls-1" x="0.5" y="41.5" width="19" height="11"/><path class="cls-2" d="M49,55V65H31V55H49m1-1H30V66H50V54Z" transform="translate(-30 -13)"/><rect class="cls-3" x="6.5" y="2.5" width="7" height="47"/><path class="cls-4" d="M43,16V62H37V16h6m1-1H36V63h8V15Z" transform="translate(-30 -13)"/><rect class="cls-5" x="6.5" y="8.59" width="7" height="1.91"/><path class="cls-5" d="M43,22.09V23H37v-.91h6m1-1H36V24h8V21.09Z" transform="translate(-30 -13)"/><rect class="cls-5" x="6.5" y="42.58" width="7" height="1.91"/><path class="cls-5" d="M43,56.08V57H37v-.91h6m1-1H36V58h8V55.08Z" transform="translate(-30 -13)"/></svg>