<svg id="Capa_1" data-name="Capa 1" xmlns="http://www.w3.org/2000/svg" viewBox="0 0 104.63 50.81"><defs><style>.cls-1,.cls-7{fill:#99001d;}.cls-1,.cls-5,.cls-6{stroke:#000;}.cls-1,.cls-2,.cls-3,.cls-4,.cls-5,.cls-6,.cls-7{stroke-miterlimit:10;}.cls-2{fill:#7a0622;}.cls-2,.cls-7{stroke:#680722;}.cls-3{fill:#59081f;stroke:#3f0619;}.cls-4{fill:#61bab1;stroke:#4d8e86;}.cls-6{fill:#fff;}</style></defs><path class="cls-1" d="M29.56,14.78s28-30.58,64.35-.63c0,0,28.67,3.18,28.67,15.92,0,0,3.19,8.3,0,12.44H27a18.57,18.57,0,0,1-5.73-5.43S18.73,32.62,24.46,25l-2-3.23Z" transform="translate(-19.87 -0.5)"/><polygon class="cls-2" points="34.22 15.24 72.24 16.23 72.24 36.76 35.15 36.76 34.22 15.24"/><path class="cls-3" d="M57.91,17h5.77v1.34s-4.49,1.33-5.77,0Z" transform="translate(-19.87 -0.5)"/><path class="cls-4" d="M57.28,11.92V4.32S80.85,1.08,89.13,14.46C89.13,14.46,60.78,15.42,57.28,11.92Z" transform="translate(-19.87 -0.5)"/><path class="cls-4" d="M33.07,16.38S43.26,4.91,50.27,6.18v7.41S34.66,18,33.07,16.38Z" transform="translate(-19.87 -0.5)"/><circle class="cls-5" cx="88.58" cy="39.22" r="10.83"/><circle class="cls-6" cx="88.25" cy="38.89" r="6.56"/><path class="cls-7" d="M94,29.55s16.18-15.1,27.78,0c0,0,4.37,11.16.44,15.75h-3.46S121.9,32,108.93,30.13c0,0-13,1.39-11.66,13.2,0,0-2,2-5.91-3.28C91.36,40.05,89.41,37.42,94,29.55Z" transform="translate(-19.87 -0.5)"/><circle class="cls-5" cx="18" cy="39.48" r="10.83"/><circle class="cls-6" cx="17.67" cy="39.15" r="6.56"/><path class="cls-7" d="M23.42,29.8s16.18-15.1,27.78,0c0,0,4.37,11.16.44,15.76H48.18s3.14-13.28-9.83-15.18c0,0-13,1.39-11.66,13.21,0,0-2,2-5.91-3.29C20.78,40.3,18.83,37.68,23.42,29.8Z" transform="translate(-19.87 -0.5)"/></svg>