<svg id="Capa_1" data-name="Capa 1" xmlns="http://www.w3.org/2000/svg" viewBox="0 0 1920.16 529.15"><defs><style>.cls-1{fill:#545454;}.cls-2{fill:#828aa0;}.cls-3{fill:none;stroke:#606572;stroke-miterlimit:10;stroke-width:10px;}</style></defs><rect class="cls-1" x="0.16" y="100" width="1920" height="329"/><rect class="cls-2" x="0.16" width="1920" height="100"/><line class="cls-3" x1="67.14" x2="67.14" y2="100"/><line class="cls-3" x1="149.16" x2="149.16" y2="100"/><line class="cls-3" x1="239.99" y1="0.08" x2="239.99" y2="100.08"/><line class="cls-3" x1="322.01" y1="0.08" x2="322.01" y2="100.08"/><line class="cls-3" x1="414.57" y1="0.04" x2="414.57" y2="100.04"/><line class="cls-3" x1="496.58" y1="0.04" x2="496.58" y2="100.04"/><line class="cls-3" x1="587.42" y1="0.12" x2="587.42" y2="100.12"/><line class="cls-3" x1="669.43" y1="0.12" x2="669.43" y2="100.12"/><line class="cls-3" x1="740.86" y1="0.02" x2="740.86" y2="100.02"/><line class="cls-3" x1="822.87" y1="0.02" x2="822.87" y2="100.02"/><line class="cls-3" x1="913.7" y1="0.1" x2="913.7" y2="100.1"/><line class="cls-3" x1="995.72" y1="0.1" x2="995.72" y2="100.1"/><line class="cls-3" x1="1088.28" y1="0.06" x2="1088.28" y2="100.06"/><line class="cls-3" x1="1170.3" y1="0.06" x2="1170.3" y2="100.06"/><line class="cls-3" x1="1261.13" y1="0.14" x2="1261.13" y2="100.14"/><line class="cls-3" x1="1343.14" y1="0.14" x2="1343.14" y2="100.14"/><line class="cls-3" x1="1430.86" y1="0.02" x2="1430.86" y2="100.02"/><line class="cls-3" x1="1521.7" y1="0.1" x2="1521.7" y2="100.1"/><line class="cls-3" x1="1603.71" y1="0.1" x2="1603.71" y2="100.1"/><line class="cls-3" x1="1696.27" y1="0.06" x2="1696.27" y2="100.06"/><line class="cls-3" x1="1778.29" y1="0.06" x2="1778.29" y2="100.06"/><line class="cls-3" x1="1869.12" y1="0.14" x2="1869.12" y2="100.14"/><rect class="cls-2" y="429.01" width="1920" height="100"/><line class="cls-3" x1="66.98" y1="429.01" x2="66.98" y2="529.01"/><line class="cls-3" x1="149" y1="429.01" x2="149" y2="529.01"/><line class="cls-3" x1="239.83" y1="429.09" x2="239.83" y2="529.09"/><line class="cls-3" x1="321.85" y1="429.09" x2="321.85" y2="529.09"/><line class="cls-3" x1="414.41" y1="429.05" x2="414.41" y2="529.05"/><line class="cls-3" x1="496.42" y1="429.05" x2="496.42" y2="529.05"/><line class="cls-3" x1="587.26" y1="429.13" x2="587.26" y2="529.13"/><line class="cls-3" x1="669.27" y1="429.13" x2="669.27" y2="529.13"/><line class="cls-3" x1="740.7" y1="429.03" x2="740.7" y2="529.03"/><line class="cls-3" x1="822.71" y1="429.03" x2="822.71" y2="529.03"/><line class="cls-3" x1="913.55" y1="429.11" x2="913.55" y2="529.11"/><line class="cls-3" x1="995.56" y1="429.11" x2="995.56" y2="529.11"/><line class="cls-3" x1="1088.12" y1="429.07" x2="1088.12" y2="529.07"/><line class="cls-3" x1="1170.14" y1="429.07" x2="1170.14" y2="529.07"/><line class="cls-3" x1="1260.97" y1="429.15" x2="1260.97" y2="529.15"/><line class="cls-3" x1="1342.99" y1="429.15" x2="1342.99" y2="529.15"/><line class="cls-3" x1="1430.7" y1="429.03" x2="1430.7" y2="529.03"/><line class="cls-3" x1="1521.54" y1="429.11" x2="1521.54" y2="529.11"/><line class="cls-3" x1="1603.55" y1="429.11" x2="1603.55" y2="529.11"/><line class="cls-3" x1="1696.11" y1="429.07" x2="1696.11" y2="529.07"/><line class="cls-3" x1="1778.13" y1="429.07" x2="1778.13" y2="529.07"/><line class="cls-3" x1="1868.96" y1="429.15" x2="1868.96" y2="529.15"/></svg>
